<svg width="16" height="16" viewBox="0 0 16 16" fill="none" xmlns="http://www.w3.org/2000/svg">
<path d="M7.99961 1.59961C6.73381 1.59961 5.49644 1.97496 4.44396 2.6782C3.39149 3.38144 2.57118 4.38099 2.08678 5.55043C1.60238 6.71988 1.47564 8.00671 1.72259 9.24819C1.96953 10.4897 2.57907 11.63 3.47413 12.5251C4.36918 13.4201 5.50956 14.0297 6.75103 14.2766C7.99251 14.5236 9.27934 14.3968 10.4488 13.9124C11.6182 13.428 12.6178 12.6077 13.321 11.5553C14.0243 10.5028 14.3996 9.26541 14.3996 7.99961C14.3996 6.30222 13.7253 4.67436 12.5251 3.47413C11.3249 2.27389 9.697 1.59961 7.99961 1.59961ZM7.08533 10.5554L4.79961 8.26969L5.52674 7.54247L7.08533 9.10096L10.4728 5.71389L11.2022 6.43888L7.08533 10.5554Z" fill="#55C21A"/>
</svg>
