<svg width="16" height="16" viewBox="0 0 16 16" fill="none" xmlns="http://www.w3.org/2000/svg">
<g id="info">
<path id="Vector" d="M7.99934 1.6001C4.46518 1.6001 1.59961 4.46567 1.59961 7.99983C1.59961 11.534 4.46518 14.4001 7.99934 14.4001C11.5335 14.4001 14.3996 11.534 14.3996 7.99983C14.3996 4.46567 11.5335 1.6001 7.99934 1.6001ZM9.33162 11.5188C9.00221 11.6488 8.73998 11.7474 8.5433 11.8157C8.34717 11.884 8.11908 11.9181 7.85955 11.9181C7.46079 11.9181 7.15034 11.8206 6.92929 11.6261C6.70823 11.4316 6.59825 11.1851 6.59825 10.8854C6.59825 10.769 6.60637 10.6498 6.62263 10.5284C6.63942 10.407 6.66597 10.2705 6.70227 10.1172L7.11458 8.66082C7.15088 8.52104 7.18231 8.3883 7.20723 8.26477C7.23215 8.14015 7.24407 8.02583 7.24407 7.92181C7.24407 7.73651 7.2056 7.60648 7.12921 7.53334C7.05173 7.46019 6.90599 7.42444 6.68873 7.42444C6.58253 7.42444 6.47309 7.44015 6.36094 7.4732C6.24987 7.50733 6.15343 7.53821 6.07433 7.56855L6.18323 7.11994C6.45304 7.00996 6.71148 6.91569 6.958 6.83767C7.20452 6.75856 7.43749 6.71956 7.65692 6.71956C8.05298 6.71956 8.35855 6.816 8.57364 7.00671C8.78765 7.19796 8.89547 7.44665 8.89547 7.75222C8.89547 7.81561 8.88789 7.92723 8.87326 8.08651C8.85863 8.24634 8.831 8.39209 8.79091 8.52591L8.38076 9.97793C8.34717 10.0944 8.31737 10.2277 8.29028 10.3767C8.26374 10.5257 8.25073 10.6395 8.25073 10.7159C8.25073 10.9087 8.29353 11.0404 8.38022 11.1103C8.46583 11.1802 8.6159 11.2154 8.82829 11.2154C8.92852 11.2154 9.04068 11.1975 9.16746 11.1628C9.29315 11.1282 9.38418 11.0973 9.44161 11.0707L9.33162 11.5188ZM9.25902 5.62512C9.06777 5.80283 8.8375 5.89169 8.56823 5.89169C8.29949 5.89169 8.0676 5.80283 7.87472 5.62512C7.68293 5.44741 7.58595 5.23123 7.58595 4.97876C7.58595 4.72682 7.68347 4.5101 7.87472 4.33076C8.0676 4.15089 8.29949 4.06149 8.56823 4.06149C8.8375 4.06149 9.06831 4.15089 9.25902 4.33076C9.45028 4.5101 9.54617 4.72682 9.54617 4.97876C9.54617 5.23178 9.45028 5.44741 9.25902 5.62512Z" fill="#717782"/>
</g>
</svg>
