<svg width="291" height="416" viewBox="0 0 291 416" fill="none" xmlns="http://www.w3.org/2000/svg">
<path fill-rule="evenodd" clip-rule="evenodd" d="M103.229 0.81213C93.9307 2.26358 70.5776 8.33436 69.3065 9.62918C68.807 10.1395 70.3909 14.815 72.8267 20.0191C75.2624 25.2245 76.9186 29.4822 76.5059 29.4822C76.0945 29.4822 72.2378 25.6696 67.9368 21.0085C61.7653 14.3203 59.6556 12.7827 57.9244 13.7094C52.2366 16.7546 34.4688 33.2414 27.527 41.9149C12.4459 60.759 6.95138 76.7759 8.16597 98.3414C8.78114 109.261 8.48143 112.993 6.54126 118.593C-1.25757 141.101 -2.18821 175.116 4.31716 199.789C10.9527 224.949 26.29 250.474 45.6984 268.655C84.4927 304.995 140.448 317.302 191.779 300.784C203.666 296.959 223.652 286.57 233.938 278.87C244.653 270.846 259.35 255.605 266.618 244.977C274.802 233.009 283.294 214.528 287.363 199.819C290.676 187.849 290.977 184.819 290.999 163.272C291.02 142.676 290.638 138.328 287.906 128.03C273.896 75.233 232.85 34.2765 181.921 22.2772C167.94 18.984 168.492 19.4761 173.282 14.5696L177.565 10.1813L169.973 7.36194C165.799 5.80998 158.792 3.6563 154.406 2.57554C144.784 0.20518 113.927 -0.858607 103.229 0.81213ZM152.674 10.7595C157.554 11.8403 161.546 12.9667 161.546 13.2643C161.546 13.5606 158.112 18.4045 153.914 24.0262C149.716 29.648 145.536 36.0347 144.625 38.2171L142.97 42.1877L126.954 42.1107C115.125 42.0545 108.782 42.6589 102.688 44.4249C98.1489 45.7393 94.2186 46.5864 93.9517 46.3058C93.1183 45.4326 80.0484 16.2469 80.0484 15.2601C80.0484 13.9457 97.5219 9.91112 107.118 9.01049C116.319 8.1464 115.722 7.47941 118.222 21.4131C120.105 31.9035 121.022 31.5981 123.374 19.6928C126.084 5.97705 125.169 6.89988 135.061 7.90754C139.868 8.39701 147.793 9.68008 152.674 10.7595ZM78.3738 44.8765L84.4112 51.7879L81.2433 53.8946C75.2046 57.9148 64.8044 69.362 60.715 76.4887C47.189 100.067 45.8193 128.409 56.7177 159.225C61.8153 173.638 62.2977 176.104 62.2464 187.419C62.2122 194.7 61.4748 201.436 60.4587 203.735L58.7262 207.651L56.4679 199.819C53.7023 190.225 47.7463 176.371 40.1118 161.769L34.3583 150.762L40.4431 147.615L46.5291 144.467L38.9932 144.407L31.4573 144.345L28.1172 137.802C26.2808 134.204 22.9105 125.833 20.6273 119.202C17.0887 108.928 16.4643 105.215 16.4051 94.0928C16.3394 81.6706 18.3821 71.2507 20.8823 71.2507C21.4856 71.2507 26.9105 73.3078 32.9387 75.8217L43.9002 80.3927L37.3672 74.8428C33.7747 71.7897 29.0478 67.7317 26.8658 65.8234L22.8974 62.3527L29.3081 53.0357C32.8335 47.9113 40.8138 39.0067 47.0392 33.2479L58.3595 22.7784L65.3486 30.3724C69.1921 34.5493 75.0547 41.0756 78.3738 44.8765ZM180.606 33.6043C192.79 36.6051 211.374 45.0749 222.594 52.742C232.67 59.6286 248.364 74.9824 255.523 84.9559C274.233 111.029 283.495 145.465 280.007 175.998C274.715 222.34 249.416 259.613 208.412 281.482C198.372 286.836 197.986 286.93 193.894 284.991C187.304 281.871 175.158 270.126 172.158 263.974C168.769 257.022 168.656 247.325 171.882 240.282C175.82 231.686 177.481 230.978 185.537 234.458C198.335 239.986 210.182 237.691 210.182 229.684C210.182 228.025 211.147 223.858 212.326 220.423C213.507 216.987 214.541 210.653 214.626 206.345C214.775 198.894 214.951 198.494 218.261 198.114C220.174 197.894 222.806 196.543 224.112 195.111C226.382 192.621 226.383 192.356 224.168 188.984C220.026 182.682 215.694 172.529 214.822 167.083L213.971 161.758L225.228 160.093C231.42 159.18 236.754 158 237.083 157.472C237.41 156.945 232.304 150.106 225.734 142.271C213.847 128.097 213.808 128.027 217.45 127.377C220.953 126.752 220.058 125.634 196.547 101.302C174.694 78.6841 172.069 75.5006 172.744 72.4437C173.381 69.5669 172.907 68.7785 169.825 67.5842C153.202 61.1466 128.693 58.9708 114.258 62.6516C88.0523 69.3319 71.7633 90.4942 69.9637 120.198C69.1553 133.55 71.4097 145.602 76.6268 155.827C78.8444 160.173 79.4464 162.707 78.6117 164.187C77.7718 165.677 78.4632 168.383 80.9291 173.26C83.2715 177.889 84.9291 184.108 85.8992 191.891L87.353 203.574L92.0391 197.782C94.6155 194.594 98.8534 188.757 101.455 184.809C116.527 161.938 138.273 153.632 169.433 158.848C174.133 159.634 185.365 160.657 194.394 161.122L210.811 161.966L211.817 169.145C212.371 173.094 214.707 180.039 217.008 184.58C221.493 193.431 221.073 195.185 214.454 195.231C211.756 195.249 211.497 195.865 211.497 202.29C211.497 207.562 210.964 209.532 209.376 210.137C207.641 210.799 207.557 211.303 208.912 212.925C210.189 214.452 210.223 215.661 209.061 218.193C208.232 220 207.553 223.473 207.553 225.911C207.553 230.831 203.853 234.409 198.766 234.409C193.332 234.409 181.994 229.232 173.053 222.666L164.186 216.156L168.273 209.562C175.089 198.561 177.332 191.118 177.211 179.9L177.101 169.798L175.276 177.273C171.596 192.352 163.483 203.465 140.616 224.754C113.292 250.191 104.795 267.797 111.033 286.045C112.169 289.368 112.903 292.283 112.662 292.522C112.422 292.76 107.659 291.456 102.08 289.623C92.5978 286.507 91.8827 286.011 91.1282 282.019C89.982 275.947 92.6123 264.879 97.0263 257.209C99.1045 253.597 108.265 242.437 117.384 232.409C127.852 220.895 135.643 211 138.524 205.556C143.999 195.21 146.659 181.804 145.1 172.409L144.015 165.882L143.032 171.756C140.317 187.96 132.774 199.258 111.965 218.287C81.3905 246.25 74.7905 255.29 74.7905 269.207C74.7905 273.04 74.3462 276.177 73.8046 276.176C73.2631 276.176 69.4169 273.523 65.2605 270.284C58.4462 264.971 57.7049 263.911 57.7312 259.515C57.7969 248.306 65.2894 238.709 88.469 220.149C108.403 204.188 117.399 194.179 120.19 184.856C121.02 182.085 120.215 182.476 114.383 187.683C110.659 191.009 99.1912 198.874 88.9002 205.164C65.3315 219.569 51.4637 232.539 47.8647 243.545C46.5738 247.494 45.2948 250.975 45.024 251.282C44.3392 252.054 41.6498 248.575 33.1398 235.908C16.3092 210.859 8.36838 179.26 11.6204 150.29C12.4183 143.189 13.4173 136.01 13.8406 134.337C14.6477 131.14 16.9533 130.109 16.9533 132.944C16.9533 133.851 22.8737 146.188 30.1099 160.36C51.0457 201.363 54.1032 214.075 47.7897 233.86C45.9744 239.551 60.8675 221.263 65.317 212.338C69.7284 203.49 70.1806 201.542 70.6328 189.436C71.1152 176.494 70.9877 175.804 64.878 157.991C59.3769 141.952 58.5567 138.118 58.0033 125.884C56.3023 88.2191 73.5891 61.5317 105.691 52.2656C111.956 50.4565 116.845 50.1459 130.716 50.6706L147.957 51.3245L149.456 47.3813C150.28 45.212 152.888 40.2702 155.251 36.3988C159.526 29.3961 159.576 29.3635 164.819 30.1871C167.718 30.6426 174.823 32.1802 180.606 33.6043ZM156.112 67.361C169.311 70.5028 169.792 70.756 168.196 73.7163C167.167 75.6259 170.799 79.9999 189.225 99.0476C201.474 111.711 211.497 122.384 211.497 122.767C211.497 123.149 208.564 123.461 204.981 123.461C198.517 123.461 198.407 123.389 191.258 114.604L184.05 105.746L174.441 106.148C169.157 106.37 161.671 106.88 157.805 107.284L150.779 108.017L153.862 111.295C158.795 116.539 163.327 118.227 171.844 117.995C181.183 117.739 184.424 119.48 190.665 128.111L195.034 134.151L204.251 133.336L213.468 132.52L221.085 141.972C228.511 151.19 228.626 151.453 225.685 152.548C218.306 155.297 195.272 155.141 175.076 152.207C147.271 148.167 134.922 148.743 122.857 154.644C116.978 157.521 110.201 162.494 103.501 168.849C95.0887 176.831 93.1933 178.109 93.1933 175.804C93.1933 174.249 92.3428 170.957 91.3044 168.488C89.4969 164.195 89.6389 163.484 94.5235 152.3C110.272 116.246 123.905 99.3295 146.323 88.0246C154.273 84.0161 155.789 82.8806 152.345 83.5084C144.266 84.9821 129.627 92.8567 120.161 100.819C108.259 110.83 99.8524 121.304 92.6911 135.038L86.9232 146.101L84.9278 142.269C77.5457 128.095 76.824 108.671 83.2098 96.0507C85.2078 92.1022 88.8673 86.4178 91.3438 83.417C95.9011 77.8945 111.369 66.8493 116.197 65.6694C123.334 63.9255 145.657 64.8718 156.112 67.361ZM169.822 235.543C161.565 249.261 163.032 261.567 174.629 275.851L181.253 284.009H177.553C171.059 284.009 160.585 280.189 144.751 272.047C136.275 267.689 129.15 263.953 128.916 263.744C128.168 263.08 132.855 254.811 137.038 249.419C139.266 246.548 146.037 238.241 152.085 230.959L163.08 217.719L168.56 223.127L174.041 228.535L169.822 235.543ZM137.94 272.186C142.226 274.297 148.388 277.839 151.634 280.056C158.434 284.702 173.106 291.819 176.006 291.879C179.304 291.947 174.838 293.973 169.159 294.985C163.628 295.971 157.575 293.382 141.959 283.349C130.599 276.053 128.586 275.83 129.994 282.027C130.561 284.527 132.298 288.713 133.852 291.329C137.859 298.073 136.222 298.361 131.407 291.761C126.581 285.146 124.431 278.041 125.56 272.437C126.581 267.369 128.101 267.338 137.94 272.186Z" fill="#6A8EE8"/>
<path d="M30.398 399.46L23.594 400.054L23.486 399.514C27.122 394.078 30.614 388.588 33.962 383.044C37.31 377.5 40.478 371.848 43.466 366.088C43.502 366.052 43.52 365.962 43.52 365.818C43.52 365.674 43.466 365.602 43.358 365.602L38.282 364.954V362.902H50.378L56.372 383.044C56.768 384.304 57.218 385.726 57.722 387.31C58.226 388.858 58.802 390.352 59.45 391.792C60.098 393.196 60.818 394.366 61.61 395.302C62.402 396.202 63.248 396.652 64.148 396.652C64.616 396.652 65.12 396.616 65.66 396.544C66.236 396.436 66.776 396.328 67.28 396.22L67.658 397.732C66.11 398.416 64.49 399.1 62.798 399.784C61.106 400.432 59.468 400.756 57.884 400.756C56.804 400.756 55.922 400.486 55.238 399.946C54.554 399.37 54.014 398.668 53.618 397.84C53.222 397.012 52.898 396.184 52.646 395.356L49.892 385.528H36.338C35.726 386.68 35.078 388.048 34.394 389.632C33.71 391.18 33.026 392.818 32.342 394.546C31.658 396.238 31.01 397.876 30.398 399.46ZM48.218 382.72C48.29 382.72 48.38 382.702 48.488 382.666C48.632 382.594 48.704 382.522 48.704 382.45C48.704 382.378 48.704 382.252 48.704 382.072C48.704 381.892 48.686 381.784 48.65 381.748L45.14 370.678C45.104 370.498 45.032 370.39 44.924 370.354C44.816 370.282 44.726 370.246 44.654 370.246C44.51 370.246 44.348 370.39 44.168 370.678L38.498 381.91C38.426 382.018 38.39 382.18 38.39 382.396C38.39 382.468 38.462 382.54 38.606 382.612C38.75 382.684 38.876 382.72 38.984 382.72H48.218ZM81.3706 373.216V366.034C81.3706 365.638 81.2446 365.368 80.9926 365.224C80.7406 365.08 80.4166 365.026 80.0206 365.062L69.1666 365.602L68.6806 365.116V361.984L69.1126 361.552C71.7046 361.588 74.2966 361.678 76.8886 361.822C79.4806 361.966 82.0726 362.038 84.6646 362.038C87.3646 362.038 90.0646 361.966 92.7646 361.822C95.4646 361.678 98.1646 361.552 100.865 361.444L101.405 361.984V364.684L100.811 365.17C100.667 365.17 100.163 365.17 99.2986 365.17C98.4706 365.134 97.4626 365.098 96.2746 365.062C95.0866 365.026 93.8806 365.008 92.6566 365.008C91.4326 364.972 90.3526 364.954 89.4166 364.954C89.0206 364.954 88.7326 365.008 88.5526 365.116C88.3726 365.188 88.2826 365.404 88.2826 365.764V373.216C88.2826 377.392 88.3726 381.586 88.5526 385.798C88.7326 390.01 88.9486 394.204 89.2006 398.38L81.4246 400.594L80.9386 399.946C81.0826 395.482 81.1906 391.036 81.2626 386.608C81.3346 382.144 81.3706 377.68 81.3706 373.216ZM133.157 363.226L140.177 361.606L140.717 362.146C140.393 365.242 140.159 368.356 140.015 371.488C139.907 374.584 139.853 377.68 139.853 380.776C139.853 384.34 139.817 387.256 139.745 389.524C139.673 391.756 139.727 393.502 139.907 394.762C140.087 395.986 140.519 396.868 141.203 397.408C141.923 397.912 143.039 398.2 144.551 398.272V399.568L144.227 400.378H133.643L132.401 399.244C132.689 396.58 132.887 393.916 132.995 391.252C133.103 388.552 133.157 385.852 133.157 383.152C133.157 382.468 132.959 382.054 132.563 381.91C132.167 381.766 131.717 381.694 131.213 381.694H115.661C115.265 381.694 114.905 381.802 114.581 382.018C114.257 382.198 114.095 382.594 114.095 383.206C114.095 388.282 114.203 393.34 114.419 398.38L107.669 400.324C107.633 400.252 107.561 400.162 107.453 400.054C107.345 399.946 107.291 399.874 107.291 399.838C107.435 396.634 107.507 393.43 107.507 390.226C107.543 387.022 107.561 383.818 107.561 380.614V366.952C107.561 366.34 107.237 365.854 106.589 365.494C105.941 365.134 105.203 364.846 104.375 364.63C103.547 364.378 102.827 364.198 102.215 364.09V362.848L102.647 362.308H114.203L114.635 362.74C114.491 365.296 114.347 367.87 114.203 370.462C114.095 373.054 114.041 375.466 114.041 377.698C114.041 378.202 114.203 378.562 114.527 378.778C114.887 378.958 115.283 379.048 115.715 379.048H131.321C132.257 379.048 132.797 378.922 132.941 378.67C133.085 378.382 133.157 378.058 133.157 377.698V363.226ZM176.836 395.896L177.376 396.328L175.972 400.432C172.912 400.252 169.834 400.126 166.738 400.054C163.678 400.018 160.6 400 157.504 400C156.64 400 155.668 400 154.588 400C153.508 399.964 152.77 399.892 152.374 399.784C151.978 399.568 151.582 399.226 151.186 398.758C150.79 398.254 150.592 397.75 150.592 397.246V374.08C150.592 373.288 150.592 372.406 150.592 371.434C150.592 370.426 150.574 369.508 150.538 368.68C150.502 367.852 150.448 367.276 150.376 366.952C150.16 366.124 149.764 365.53 149.188 365.17C148.648 364.774 148.018 364.504 147.298 364.36C146.614 364.216 145.948 364.108 145.3 364.036V362.794L145.678 362.416C147.838 362.416 150.106 362.416 152.482 362.416C154.858 362.416 157.216 362.398 159.556 362.362C161.896 362.29 164.092 362.218 166.144 362.146C168.196 362.038 169.978 361.894 171.49 361.714L172.192 361.984V365.332L171.544 365.926C170.5 365.854 169.276 365.782 167.872 365.71C166.504 365.602 165.154 365.512 163.822 365.44C162.526 365.368 161.428 365.314 160.528 365.278C159.664 365.206 159.232 365.17 159.232 365.17C158.26 365.17 157.702 365.44 157.558 365.98C157.414 366.52 157.342 367.15 157.342 367.87V377.59C157.342 377.842 157.432 378.148 157.612 378.508C157.828 378.832 158.098 378.994 158.422 378.994C159.25 378.994 160.312 378.958 161.608 378.886C162.94 378.778 164.254 378.67 165.55 378.562C166.882 378.454 167.998 378.346 168.898 378.238C169.798 378.13 170.266 378.076 170.302 378.076C170.338 378.076 170.428 378.13 170.572 378.238C170.752 378.346 170.896 378.436 171.004 378.508V381.64C169.132 381.568 167.152 381.532 165.064 381.532C162.976 381.496 160.906 381.478 158.854 381.478C158.242 381.478 157.828 381.622 157.612 381.91C157.432 382.198 157.342 382.54 157.342 382.936C157.342 384.7 157.36 386.536 157.396 388.444C157.432 390.352 157.576 391.99 157.828 393.358C158.116 395.59 159.322 396.706 161.446 396.706C161.59 396.706 162.166 396.688 163.174 396.652C164.218 396.58 165.496 396.508 167.008 396.436C168.556 396.328 170.194 396.238 171.922 396.166C173.65 396.058 175.288 395.968 176.836 395.896ZM178.258 362.686L178.69 362.254H189.436C193.072 366.79 196.852 371.254 200.776 375.646C204.736 380.002 208.732 384.322 212.764 388.606V362.956L217.138 361.498L218.218 362.254C217.786 367.078 217.426 371.902 217.138 376.726C216.85 381.55 216.706 386.374 216.706 391.198C216.706 392.638 216.724 394.078 216.76 395.518C216.796 396.922 216.868 398.326 216.976 399.73H212.926L187.924 371.92V398.164L183.496 400.162L182.794 399.73C183.082 394.69 183.316 389.668 183.496 384.664C183.712 379.66 183.82 374.656 183.82 369.652C183.82 368.464 183.73 367.528 183.55 366.844C183.37 366.268 182.956 365.782 182.308 365.386C181.66 364.99 180.958 364.684 180.202 364.468C179.446 364.216 178.798 364.018 178.258 363.874V362.686ZM228.943 399.46L222.139 400.054L222.031 399.514C225.667 394.078 229.159 388.588 232.507 383.044C235.855 377.5 239.023 371.848 242.011 366.088C242.047 366.052 242.065 365.962 242.065 365.818C242.065 365.674 242.011 365.602 241.903 365.602L236.827 364.954V362.902H248.923L254.917 383.044C255.313 384.304 255.763 385.726 256.267 387.31C256.771 388.858 257.347 390.352 257.995 391.792C258.643 393.196 259.363 394.366 260.155 395.302C260.947 396.202 261.793 396.652 262.693 396.652C263.161 396.652 263.665 396.616 264.205 396.544C264.781 396.436 265.321 396.328 265.825 396.22L266.203 397.732C264.655 398.416 263.035 399.1 261.343 399.784C259.651 400.432 258.013 400.756 256.429 400.756C255.349 400.756 254.467 400.486 253.783 399.946C253.099 399.37 252.559 398.668 252.163 397.84C251.767 397.012 251.443 396.184 251.191 395.356L248.437 385.528H234.883C234.271 386.68 233.623 388.048 232.939 389.632C232.255 391.18 231.571 392.818 230.887 394.546C230.203 396.238 229.555 397.876 228.943 399.46ZM246.763 382.72C246.835 382.72 246.925 382.702 247.033 382.666C247.177 382.594 247.249 382.522 247.249 382.45C247.249 382.378 247.249 382.252 247.249 382.072C247.249 381.892 247.231 381.784 247.195 381.748L243.685 370.678C243.649 370.498 243.577 370.39 243.469 370.354C243.361 370.282 243.271 370.246 243.199 370.246C243.055 370.246 242.893 370.39 242.713 370.678L237.043 381.91C236.971 382.018 236.935 382.18 236.935 382.396C236.935 382.468 237.007 382.54 237.151 382.612C237.295 382.684 237.421 382.72 237.529 382.72H246.763Z" fill="#6A8EE8"/>
</svg>
