<svg width="119" height="36" viewBox="0 0 119 36" fill="none" xmlns="http://www.w3.org/2000/svg">
<path d="M48.192 24.84L46.176 25.016L46.144 24.856C47.2213 23.2453 48.256 21.6187 49.248 19.976C50.24 18.3333 51.1787 16.6587 52.064 14.952C52.0747 14.9413 52.08 14.9147 52.08 14.872C52.08 14.8293 52.064 14.808 52.032 14.808L50.528 14.616V14.008H54.112L55.888 19.976C56.0053 20.3493 56.1387 20.7707 56.288 21.24C56.4373 21.6987 56.608 22.1413 56.8 22.568C56.992 22.984 57.2053 23.3307 57.44 23.608C57.6747 23.8747 57.9253 24.008 58.192 24.008C58.3307 24.008 58.48 23.9973 58.64 23.976C58.8107 23.944 58.9707 23.912 59.12 23.88L59.232 24.328C58.7733 24.5307 58.2933 24.7333 57.792 24.936C57.2907 25.128 56.8053 25.224 56.336 25.224C56.016 25.224 55.7547 25.144 55.552 24.984C55.3493 24.8133 55.1893 24.6053 55.072 24.36C54.9547 24.1147 54.8587 23.8693 54.784 23.624L53.968 20.712H49.952C49.7707 21.0533 49.5787 21.4587 49.376 21.928C49.1733 22.3867 48.9707 22.872 48.768 23.384C48.5653 23.8853 48.3733 24.3707 48.192 24.84ZM53.472 19.88C53.4933 19.88 53.52 19.8747 53.552 19.864C53.5947 19.8427 53.616 19.8213 53.616 19.8C53.616 19.7787 53.616 19.7413 53.616 19.688C53.616 19.6347 53.6107 19.6027 53.6 19.592L52.56 16.312C52.5493 16.2587 52.528 16.2267 52.496 16.216C52.464 16.1947 52.4373 16.184 52.416 16.184C52.3733 16.184 52.3253 16.2267 52.272 16.312L50.592 19.64C50.5707 19.672 50.56 19.72 50.56 19.784C50.56 19.8053 50.5813 19.8267 50.624 19.848C50.6667 19.8693 50.704 19.88 50.736 19.88H53.472ZM63.295 17.064V14.936C63.295 14.8187 63.2577 14.7387 63.183 14.696C63.1083 14.6533 63.0123 14.6373 62.895 14.648L59.679 14.808L59.535 14.664V13.736L59.663 13.608C60.431 13.6187 61.199 13.6453 61.967 13.688C62.735 13.7307 63.503 13.752 64.271 13.752C65.071 13.752 65.871 13.7307 66.671 13.688C67.471 13.6453 68.271 13.608 69.071 13.576L69.231 13.736V14.536L69.055 14.68C69.0123 14.68 68.863 14.68 68.607 14.68C68.3617 14.6693 68.063 14.6587 67.711 14.648C67.359 14.6373 67.0017 14.632 66.639 14.632C66.2763 14.6213 65.9563 14.616 65.679 14.616C65.5617 14.616 65.4763 14.632 65.423 14.664C65.3697 14.6853 65.343 14.7493 65.343 14.856V17.064C65.343 18.3013 65.3697 19.544 65.423 20.792C65.4763 22.04 65.5403 23.2827 65.615 24.52L63.311 25.176L63.167 24.984C63.2097 23.6613 63.2417 22.344 63.263 21.032C63.2843 19.7093 63.295 18.3867 63.295 17.064ZM78.639 14.104L80.719 13.624L80.879 13.784C80.783 14.7013 80.7137 15.624 80.671 16.552C80.639 17.4693 80.623 18.3867 80.623 19.304C80.623 20.36 80.6123 21.224 80.591 21.896C80.5697 22.5573 80.5857 23.0747 80.639 23.448C80.6923 23.8107 80.8203 24.072 81.023 24.232C81.2363 24.3813 81.567 24.4667 82.015 24.488V24.872L81.919 25.112H78.783L78.415 24.776C78.5003 23.9867 78.559 23.1973 78.591 22.408C78.623 21.608 78.639 20.808 78.639 20.008C78.639 19.8053 78.5803 19.6827 78.463 19.64C78.3457 19.5973 78.2123 19.576 78.063 19.576H73.455C73.3377 19.576 73.231 19.608 73.135 19.672C73.039 19.7253 72.991 19.8427 72.991 20.024C72.991 21.528 73.023 23.0267 73.087 24.52L71.087 25.096C71.0763 25.0747 71.055 25.048 71.023 25.016C70.991 24.984 70.975 24.9627 70.975 24.952C71.0177 24.0027 71.039 23.0533 71.039 22.104C71.0497 21.1547 71.055 20.2053 71.055 19.256V15.208C71.055 15.0267 70.959 14.8827 70.767 14.776C70.575 14.6693 70.3563 14.584 70.111 14.52C69.8657 14.4453 69.6523 14.392 69.471 14.36V13.992L69.599 13.832H73.023L73.151 13.96C73.1083 14.7173 73.0657 15.48 73.023 16.248C72.991 17.016 72.975 17.7307 72.975 18.392C72.975 18.5413 73.023 18.648 73.119 18.712C73.2257 18.7653 73.343 18.792 73.471 18.792H78.095C78.3723 18.792 78.5323 18.7547 78.575 18.68C78.6177 18.5947 78.639 18.4987 78.639 18.392V14.104ZM91.581 23.784L91.741 23.912L91.325 25.128C90.4183 25.0747 89.5063 25.0373 88.589 25.016C87.6823 25.0053 86.7703 25 85.853 25C85.597 25 85.309 25 84.989 25C84.669 24.9893 84.4503 24.968 84.333 24.936C84.2157 24.872 84.0983 24.7707 83.981 24.632C83.8637 24.4827 83.805 24.3333 83.805 24.184V17.32C83.805 17.0853 83.805 16.824 83.805 16.536C83.805 16.2373 83.7997 15.9653 83.789 15.72C83.7783 15.4747 83.7623 15.304 83.741 15.208C83.677 14.9627 83.5597 14.7867 83.389 14.68C83.229 14.5627 83.0423 14.4827 82.829 14.44C82.6263 14.3973 82.429 14.3653 82.237 14.344V13.976L82.349 13.864C82.989 13.864 83.661 13.864 84.365 13.864C85.069 13.864 85.7677 13.8587 86.461 13.848C87.1543 13.8267 87.805 13.8053 88.413 13.784C89.021 13.752 89.549 13.7093 89.997 13.656L90.205 13.736V14.728L90.013 14.904C89.7037 14.8827 89.341 14.8613 88.925 14.84C88.5197 14.808 88.1197 14.7813 87.725 14.76C87.341 14.7387 87.0157 14.7227 86.749 14.712C86.493 14.6907 86.365 14.68 86.365 14.68C86.077 14.68 85.9117 14.76 85.869 14.92C85.8263 15.08 85.805 15.2667 85.805 15.48V18.36C85.805 18.4347 85.8317 18.5253 85.885 18.632C85.949 18.728 86.029 18.776 86.125 18.776C86.3703 18.776 86.685 18.7653 87.069 18.744C87.4637 18.712 87.853 18.68 88.237 18.648C88.6317 18.616 88.9623 18.584 89.229 18.552C89.4957 18.52 89.6343 18.504 89.645 18.504C89.6557 18.504 89.6823 18.52 89.725 18.552C89.7783 18.584 89.821 18.6107 89.853 18.632V19.56C89.2983 19.5387 88.7117 19.528 88.093 19.528C87.4743 19.5173 86.861 19.512 86.253 19.512C86.0717 19.512 85.949 19.5547 85.885 19.64C85.8317 19.7253 85.805 19.8267 85.805 19.944C85.805 20.4667 85.8103 21.0107 85.821 21.576C85.8317 22.1413 85.8743 22.6267 85.949 23.032C86.0343 23.6933 86.3917 24.024 87.021 24.024C87.0637 24.024 87.2343 24.0187 87.533 24.008C87.8423 23.9867 88.221 23.9653 88.669 23.944C89.1277 23.912 89.613 23.8853 90.125 23.864C90.637 23.832 91.1223 23.8053 91.581 23.784ZM92.0023 13.944L92.1303 13.816H95.3143C96.3916 15.16 97.5116 16.4827 98.6743 17.784C99.8476 19.0747 101.032 20.3547 102.226 21.624V14.024L103.522 13.592L103.842 13.816C103.714 15.2453 103.608 16.6747 103.522 18.104C103.437 19.5333 103.394 20.9627 103.394 22.392C103.394 22.8187 103.4 23.2453 103.41 23.672C103.421 24.088 103.442 24.504 103.474 24.92H102.274L94.8663 16.68V24.456L93.5543 25.048L93.3463 24.92C93.4316 23.4267 93.5009 21.9387 93.5543 20.456C93.6183 18.9733 93.6503 17.4907 93.6503 16.008C93.6503 15.656 93.6236 15.3787 93.5703 15.176C93.5169 15.0053 93.3943 14.8613 93.2023 14.744C93.0103 14.6267 92.8023 14.536 92.5783 14.472C92.3543 14.3973 92.1623 14.3387 92.0023 14.296V13.944ZM107.02 24.84L105.004 25.016L104.972 24.856C106.049 23.2453 107.084 21.6187 108.076 19.976C109.068 18.3333 110.007 16.6587 110.892 14.952C110.903 14.9413 110.908 14.9147 110.908 14.872C110.908 14.8293 110.892 14.808 110.86 14.808L109.356 14.616V14.008H112.94L114.716 19.976C114.833 20.3493 114.967 20.7707 115.116 21.24C115.265 21.6987 115.436 22.1413 115.628 22.568C115.82 22.984 116.033 23.3307 116.268 23.608C116.503 23.8747 116.753 24.008 117.02 24.008C117.159 24.008 117.308 23.9973 117.468 23.976C117.639 23.944 117.799 23.912 117.948 23.88L118.06 24.328C117.601 24.5307 117.121 24.7333 116.62 24.936C116.119 25.128 115.633 25.224 115.164 25.224C114.844 25.224 114.583 25.144 114.38 24.984C114.177 24.8133 114.017 24.6053 113.9 24.36C113.783 24.1147 113.687 23.8693 113.612 23.624L112.796 20.712H108.78C108.599 21.0533 108.407 21.4587 108.204 21.928C108.001 22.3867 107.799 22.872 107.596 23.384C107.393 23.8853 107.201 24.3707 107.02 24.84ZM112.3 19.88C112.321 19.88 112.348 19.8747 112.38 19.864C112.423 19.8427 112.444 19.8213 112.444 19.8C112.444 19.7787 112.444 19.7413 112.444 19.688C112.444 19.6347 112.439 19.6027 112.428 19.592L111.388 16.312C111.377 16.2587 111.356 16.2267 111.324 16.216C111.292 16.1947 111.265 16.184 111.244 16.184C111.201 16.184 111.153 16.2267 111.1 16.312L109.42 19.64C109.399 19.672 109.388 19.72 109.388 19.784C109.388 19.8053 109.409 19.8267 109.452 19.848C109.495 19.8693 109.532 19.88 109.564 19.88H112.3Z" fill="#6A8EE8"/>
<path fill-rule="evenodd" clip-rule="evenodd" d="M11.9725 0.0949243C10.894 0.264575 8.18554 0.974146 8.03812 1.12549C7.98019 1.18514 8.16389 1.73162 8.44639 2.33989C8.72889 2.94831 8.92098 3.44598 8.87311 3.44598C8.82539 3.44598 8.37809 3.00034 7.87927 2.45554C7.1635 1.6738 6.91881 1.49408 6.71803 1.6024C6.05837 1.95833 3.99767 3.88536 3.19256 4.89914C1.44347 7.1017 0.806217 8.9738 0.947084 11.4945C1.01843 12.7708 0.983671 13.207 0.758651 13.8615C-0.145852 16.4923 -0.253788 20.4681 0.500701 23.352C1.27028 26.2928 3.0491 29.2762 5.30007 31.4012C9.79941 35.6487 16.289 37.0872 22.2425 35.1566C23.6211 34.7095 25.939 33.4951 27.1319 32.5952C28.3747 31.6574 30.0793 29.8759 30.9222 28.6337C31.8714 27.2349 32.8562 25.0747 33.3282 23.3555C33.7124 21.9563 34 20.2511 34 18.9312C34 17.0767 33.708 16.1682 33.3912 14.9645C31.7663 8.79347 27.0058 4.00634 21.0991 2.60383C19.4776 2.21891 19.5416 2.27643 20.0971 1.70294L20.5938 1.19002L19.7134 0.860487C19.2292 0.679089 18.4167 0.427359 17.9079 0.301037C16.792 0.023982 13.2131 -0.100357 11.9725 0.0949243ZM17.707 1.25761C18.273 1.38393 18.736 1.51559 18.736 1.55038C18.736 1.58501 18.3377 2.15117 17.8509 2.80826C17.364 3.46535 16.8792 4.21184 16.7735 4.46693L16.5816 4.93103L14.7241 4.92203C13.3522 4.91547 12.6164 4.9861 11.9097 5.19252C11.3832 5.34615 10.9274 5.44517 10.8965 5.41237C10.7998 5.3103 9.28397 1.89898 9.28397 1.78365C9.28397 1.63002 11.3105 1.15844 12.4234 1.05317C13.4906 0.952177 13.4214 0.874217 13.7114 2.50283C13.9297 3.72898 14.0361 3.69328 14.3088 2.30175C14.6232 0.698617 14.5171 0.806479 15.6643 0.924258C16.2218 0.981469 17.1409 1.13144 17.707 1.25761ZM9.08974 5.24531L9.78996 6.05313L9.42255 6.29937C8.72218 6.76926 7.51597 8.10724 7.04169 8.94024C5.47295 11.6961 5.3141 15.0089 6.57808 18.6108C7.16929 20.2954 7.22524 20.5836 7.2193 21.9061C7.21533 22.7571 7.12981 23.5445 7.01196 23.8132L6.81103 24.2709L6.54912 23.3555C6.22836 22.2341 5.53759 20.6148 4.65214 18.9081L3.98486 17.6215L4.69056 17.2537L5.39642 16.8857L4.52241 16.8787L3.64839 16.8715L3.26101 16.1067C3.04804 15.6861 2.65715 14.7077 2.39234 13.9327C1.98193 12.7319 1.90952 12.2979 1.90266 10.9979C1.89503 9.54591 2.13195 8.328 2.42191 8.328C2.49189 8.328 3.12106 8.56844 3.82021 8.86228L5.09151 9.39655L4.33382 8.74786C3.91717 8.39101 3.36895 7.91669 3.11588 7.69364L2.65562 7.28798L3.39914 6.19898C3.80801 5.60002 4.73355 4.55923 5.45557 3.88612L6.7685 2.66241L7.57909 3.55003C8.02486 4.03823 8.7048 4.80104 9.08974 5.24531ZM20.9466 3.92777C22.3597 4.27851 24.5151 5.2685 25.8163 6.16466C26.985 6.96958 28.8051 8.76418 29.6354 9.92992C31.8054 12.9774 32.8796 17.0024 32.4751 20.5712C31.8613 25.9878 28.9271 30.3444 24.1714 32.9005C23.007 33.5263 22.9623 33.5373 22.4878 33.3107C21.7234 32.9459 20.3147 31.5732 19.9668 30.8541C19.5738 30.0416 19.5607 28.9082 19.9348 28.0849C20.3915 27.0802 20.5841 26.9975 21.5185 27.4042C23.0027 28.0503 24.3768 27.7821 24.3768 26.8461C24.3768 26.6522 24.4887 26.1652 24.6255 25.7637C24.7624 25.3622 24.8823 24.6218 24.8922 24.1183C24.9095 23.2473 24.9299 23.2006 25.3138 23.1562C25.5356 23.1305 25.841 22.9726 25.9923 22.8052C26.2556 22.5141 26.2558 22.4831 25.9989 22.0891C25.5185 21.3525 25.016 20.1657 24.915 19.5292L24.8162 18.9067L26.1218 18.7122C26.84 18.6054 27.4586 18.4675 27.4967 18.4059C27.5347 18.3442 26.9424 17.5448 26.1805 16.6291C24.8018 14.9724 24.7973 14.9642 25.2197 14.8882C25.626 14.8151 25.5222 14.6845 22.7954 11.8405C20.2609 9.19685 19.9564 8.82475 20.0348 8.46744C20.1086 8.1312 20.0537 8.03905 19.6962 7.89945C17.7683 7.14701 14.9258 6.89269 13.2516 7.32292C10.2123 8.10373 8.32306 10.5772 8.11435 14.0491C8.02059 15.6097 8.28205 17.0185 8.88713 18.2135C9.14432 18.7215 9.21414 19.0177 9.11734 19.1907C9.01992 19.3649 9.10011 19.6811 9.38611 20.2511C9.65778 20.7923 9.85003 21.5191 9.96254 22.4288L10.1311 23.7944L10.6746 23.1173C10.9734 22.7448 11.465 22.0625 11.7667 21.601C13.5147 18.9278 16.0369 17.957 19.6508 18.5667C20.1958 18.6585 21.4985 18.7781 22.5457 18.8324L24.4497 18.9312L24.5664 19.7702C24.6306 20.2318 24.9015 21.0435 25.1685 21.5743C25.6887 22.6088 25.6399 22.8139 24.8723 22.8192C24.5593 22.8214 24.5293 22.8934 24.5293 23.6443C24.5293 24.2605 24.4675 24.4907 24.2833 24.5615C24.0821 24.6388 24.0724 24.6977 24.2295 24.8874C24.3776 25.0659 24.3815 25.2071 24.2468 25.5031C24.1506 25.7143 24.0719 26.1202 24.0719 26.4052C24.0719 26.9802 23.6427 27.3984 23.0527 27.3984C22.4225 27.3984 21.1076 26.7933 20.0706 26.026L19.0422 25.265L19.5161 24.4942C20.3068 23.2084 20.5669 22.3385 20.5528 21.0272L20.54 19.8465L20.3284 20.7203C19.9015 22.4827 18.9606 23.7816 16.3085 26.2699C13.1395 29.2431 12.154 31.301 12.8776 33.4338C13.0093 33.8222 13.0944 34.1629 13.0665 34.1908C13.0386 34.2188 12.4862 34.0663 11.8392 33.852C10.7394 33.4878 10.6565 33.4298 10.569 32.9633C10.4361 32.2536 10.7411 30.9598 11.253 30.0634C11.4941 29.6412 12.5565 28.3368 13.6141 27.1647C14.8282 25.8189 15.7318 24.6623 16.066 24.026C16.701 22.8168 17.0094 21.2498 16.8286 20.1517L16.7028 19.3888L16.5887 20.0754C16.2739 21.9693 15.399 23.2899 12.9857 25.5141C9.43962 28.7825 8.67416 29.8391 8.67416 31.4657C8.67416 31.9138 8.62263 32.2804 8.55982 32.2803C8.49701 32.2803 8.05093 31.9703 7.56887 31.5916C6.77856 30.9707 6.69257 30.8468 6.69562 30.333C6.70325 29.0228 7.57223 27.9011 10.2606 25.7317C12.5725 23.8661 13.6159 22.6963 13.9396 21.6065C14.0358 21.2826 13.9425 21.3284 13.266 21.9369C12.8341 22.3257 11.5041 23.245 10.3106 23.9802C7.5771 25.6639 5.96873 27.1799 5.55131 28.4664C5.4016 28.9279 5.25327 29.3347 5.22186 29.3706C5.14243 29.4609 4.83051 29.0542 3.84353 27.5737C1.89153 24.6459 0.97056 20.9525 1.34773 17.5663C1.44027 16.7364 1.55613 15.8973 1.60522 15.7017C1.69883 15.3281 1.96623 15.2075 1.96623 15.5389C1.96623 15.6449 2.65288 17.087 3.49213 18.7433C5.92025 23.536 6.27485 25.0218 5.54262 27.3343C5.33208 27.9995 7.05938 25.8619 7.57543 24.8187C8.08706 23.7845 8.1395 23.5569 8.19195 22.1418C8.2479 20.6292 8.23311 20.5485 7.52451 18.4664C6.88649 16.5917 6.79136 16.1437 6.72718 14.7137C6.52991 10.3113 8.53481 7.19202 12.258 6.10897C12.9846 5.89752 13.5516 5.86121 15.1604 5.92254L17.16 5.99897L17.3338 5.53808C17.4294 5.28452 17.7318 4.70691 18.0059 4.25441C18.5017 3.43591 18.5075 3.43209 19.1157 3.52836C19.4518 3.5816 20.2758 3.76133 20.9466 3.92777ZM18.1058 7.87336C19.6366 8.24058 19.6924 8.27018 19.5073 8.61619C19.3879 8.83939 19.8092 9.35063 21.9462 11.577C23.3668 13.0572 24.5293 14.3047 24.5293 14.3494C24.5293 14.3941 24.1891 14.4305 23.7735 14.4305C23.0239 14.4305 23.0111 14.4221 22.1819 13.3952L21.346 12.3599L20.2316 12.4069C19.6187 12.4329 18.7505 12.4925 18.3022 12.5397L17.4873 12.6254L17.8448 13.0085C18.417 13.6215 18.9426 13.8188 19.9304 13.7916C21.0135 13.7617 21.3893 13.9652 22.1132 14.974L22.6199 15.68L23.6889 15.5847L24.7579 15.4893L25.6412 16.5942C26.5026 17.6716 26.5159 17.7023 26.1748 17.8303C25.319 18.1516 22.6475 18.1334 20.3052 17.7904C17.0804 17.3183 15.6481 17.3855 14.2489 18.0753C13.567 18.4115 12.7811 18.9928 12.004 19.7356C11.0283 20.6685 10.8085 20.8179 10.8085 20.5485C10.8085 20.3668 10.7099 19.982 10.5894 19.6934C10.3798 19.1916 10.3963 19.1086 10.9628 17.8013C12.7893 13.5872 14.3704 11.6099 16.9705 10.2886C17.8925 9.82007 18.0683 9.68734 17.6689 9.76072C16.7319 9.93297 15.034 10.8534 13.9362 11.784C12.5558 12.9542 11.5808 14.1783 10.7503 15.7836L10.0813 17.0767L9.84987 16.6288C8.9937 14.9721 8.91 12.7018 9.65062 11.2267C9.88234 10.7652 10.3068 10.1008 10.594 9.75004C11.1225 9.10455 12.9165 7.81356 13.4764 7.67564C14.3042 7.47182 16.8932 7.58243 18.1058 7.87336ZM19.6959 27.531C18.7382 29.1344 18.9083 30.5728 20.2534 32.2423L21.0216 33.1958H20.5925C19.8393 33.1958 18.6246 32.7494 16.7882 31.7977C15.8051 31.2883 14.9787 30.8517 14.9516 30.8273C14.8648 30.7496 15.4085 29.7831 15.8936 29.1529C16.152 28.8173 16.9373 27.8463 17.6387 26.9952L18.914 25.4477L19.5495 26.0798L20.1851 26.7119L19.6959 27.531ZM15.9981 31.8139C16.4953 32.0607 17.21 32.4746 17.5864 32.7339C18.375 33.2768 20.0767 34.1088 20.413 34.1158C20.7955 34.1237 20.2776 34.3605 19.6189 34.4787C18.9775 34.5941 18.2755 34.2914 16.4643 33.1188C15.1468 32.2659 14.9133 32.2399 15.0766 32.9642C15.1424 33.2564 15.3438 33.7457 15.524 34.0514C15.9888 34.8397 15.7989 34.8734 15.2405 34.1019C14.6808 33.3287 14.4314 32.4983 14.5623 31.8433C14.6808 31.2509 14.857 31.2473 15.9981 31.8139Z" fill="#6A8EE8"/>
</svg>
